<svg xmlns="http://www.w3.org/2000/svg" viewBox="0 0 512 512" style="enable-background:new 0 0 512 512" xml:space="preserve"><path style="fill:#4fc0e8" d="M0 256.006C0 397.402 114.606 512.004 255.996 512 397.394 512.004 512 397.402 512 256.006 512.009 114.61 397.394 0 255.996 0 114.606 0 0 114.614 0 256.006z"/><path style="fill:#3daed9" d="M512 256.005c.002-33.734-6.586-65.914-18.44-95.408a3.74 3.74 0 0 1-.294-.195c-.224-.314-.354-.673-.636-.956L422.565 89.38a7.028 7.028 0 0 0-9.94 0L308.608 193.396c-.336-.372-32.373-32.336-32.998-32.784-1.275-1.776-3.257-3.008-5.61-3.008a7.025 7.025 0 0 0-7.028 7.028v62.253c-.066-.058-.143-.1-.211-.156-.543-.519-94.978-95.074-95.562-95.556-5.263-5.026-12.067-8.196-19.42-8.655-8.909-.461-17.601 2.757-23.905 9.066l-25.629 25.69c-14.235 14.263-34.846 59.954 80.893 175.941.268.268.515.499.783.765.279.282.53.547.811.828.246.247 161.31 161.292 161.555 161.539.179.179.352.356.524.533C441.467 461.324 512 366.922 512 256.005z"/><path style="fill:#f6f6f6" d="m377.502 342.042-40.125-31.298a30.979 30.979 0 0 0-38.364.138l-8.923 7.062c-6.768 5.354-16.469 4.784-22.574-1.317l-71.769-71.923c-6.109-6.129-6.678-15.875-1.322-22.67l7.049-8.943a31.095 31.095 0 0 0 .138-38.402l-31.226-40.207a31.077 31.077 0 0 0-22.605-11.963c-8.909-.46-17.602 2.759-23.906 9.067l-25.629 25.691C84.011 171.539 63.4 217.23 179.14 333.217c75.427 75.596 121.454 91.463 146.784 91.463h.003c15.254 0 24.098-5.649 28.827-10.391l25.632-25.683a31.161 31.161 0 0 0 9.033-23.94 31.154 31.154 0 0 0-11.917-22.624zm-7.067 36.637-25.632 25.683c-2.848 2.855-8.438 6.259-18.878 6.259-18.559 0-61.013-11.345-136.832-87.332-87.339-87.524-98.162-138.788-80.894-156.091l25.629-25.691a17 17 0 0 1 13.083-4.956 17.022 17.022 0 0 1 12.375 6.548l31.229 40.207a17.074 17.074 0 0 1-.076 21.078l-7.049 8.943c-9.76 12.382-8.727 30.138 2.405 41.298l71.772 71.93c11.15 11.167 28.892 12.19 41.247 2.41l8.923-7.062a16.937 16.937 0 0 1 20.992-.082l40.125 31.298a17.116 17.116 0 0 1 1.581 25.56z"/><path style="fill:#f6f6f6" d="M422.564 89.38a7.024 7.024 0 0 0-9.938 0L277.029 224.977v-60.345c0-3.885-3.147-7.028-7.028-7.028s-7.028 3.143-7.028 7.028v77.311a7.026 7.026 0 0 0 7.028 7.028h70.283c3.882 0 7.028-3.143 7.028-7.028s-3.147-7.028-7.028-7.028h-53.316L422.564 99.318a7.024 7.024 0 0 0 0-9.938z"/></svg>